<svg viewBox="0 0 720 150" focusable="false"><path class="lt" d="M20,128 H700"/><rect class="ln d fw" pathLength="1" x="40" y="20" width="150" height="108" rx="4" style="--d:0.00s"/><rect class="lt" x="58" y="36" width="16" height="12" rx="2"/><rect class="lt" x="58" y="58" width="16" height="12" rx="2"/><rect class="lt" x="58" y="80" width="16" height="12" rx="2"/><rect class="lt" x="90" y="36" width="16" height="12" rx="2"/><rect class="lt" x="90" y="58" width="16" height="12" rx="2"/><rect class="lt" x="90" y="80" width="16" height="12" rx="2"/><rect class="lt" x="122" y="36" width="16" height="12" rx="2"/><rect class="lt" x="122" y="58" width="16" height="12" rx="2"/><rect class="lt" x="122" y="80" width="16" height="12" rx="2"/><rect class="lt" x="154" y="36" width="16" height="12" rx="2"/><rect class="lt" x="154" y="58" width="16" height="12" rx="2"/><rect class="lt" x="154" y="80" width="16" height="12" rx="2"/><rect class="ln fw" x="100" y="104" width="30" height="24" rx="2"/><path class="lt" d="M250,128 V104"/><path class="lt" d="M314,128 V104"/><path class="lt" d="M378,128 V104"/><path class="lt" d="M442,128 V104"/><path class="lt" d="M506,128 V104"/><path class="lt" d="M570,128 V104"/><rect class="ln d fw" pathLength="1" x="266" y="78" width="22" height="50" rx="4" style="--d:0.40s"/><rect class="fi fade" x="270" y="86" width="14" height="10" rx="2" style="--d:0.90s"/><path class="lb d" pathLength="1" d="M288,104 c14,0 16,10 10,20" style="--d:1.10s"/><rect class="ln d fw" pathLength="1" x="330" y="78" width="22" height="50" rx="4" style="--d:0.60s"/><rect class="fi fade" x="334" y="86" width="14" height="10" rx="2" style="--d:1.10s"/><path class="lb d" pathLength="1" d="M352,104 c14,0 16,10 10,20" style="--d:1.30s"/><g class="fade" style="--d:1.00s"><path class="la fas" d="M430,44 h86 l16,16 l-16,16 h-86 z"/><circle class="la" cx="444" cy="60" r="4"/><text x="480" y="65" text-anchor="middle" class="a" style="font-size:14px">FREE</text></g><path class="ln d" pathLength="1" d="M424,76 L538,42" style="--d:1.80s"/><g class="fade" style="--d:2.20s"><circle class="lb" cx="624" cy="72" r="14"/><path class="lb" d="M638,72 H680 M668,72 V82 M678,72 V80"/></g><text x="250" y="148">Who owns the charger?</text></svg>
